<?xml version="1.0" encoding="iso-8859-1"?>
<!-- Generator: Adobe Illustrator 19.0.0, SVG Export Plug-In . SVG Version: 6.00 Build 0)  -->
<svg version="1.1" id="Layer_1" xmlns="http://www.w3.org/2000/svg" xmlns:xlink="http://www.w3.org/1999/xlink" x="0px" y="0px" width="80%" height="80%"
	 viewBox="0 0 511.999 511.999" style="enable-background:new 0 0 511.999 511.999;" xml:space="preserve">
<g>
	<g>
		<path d="M497.843,405.716H463.51h-6.6v-71.992v-0.429v-98.884v-0.214v-85.154c0-7.819-6.339-14.157-14.157-14.157H306.969
			c8.418-10.887,13.445-24.522,13.445-39.318c0-35.518-28.895-64.413-64.413-64.413c-35.518,0-64.413,28.895-64.413,64.413
			c0,14.795,5.027,28.431,13.445,39.318h-65.847c-0.17,0-0.336,0.02-0.504,0.025c-0.168-0.006-0.334-0.025-0.504-0.025H69.247
			c-7.817,0-14.157,6.338-14.157,14.157v256.672h-6.6H14.157C6.339,405.716,0,412.054,0,419.873c0,7.819,6.339,14.157,14.157,14.157
			h28.244c29.289,29.821,69.569,46.814,111.529,46.814h204.139c41.959,0,82.24-16.992,111.529-46.814h28.244
			c7.817,0,14.157-6.338,14.157-14.157C511.999,412.054,505.662,405.716,497.843,405.716z M256,59.469
			c19.906,0,36.1,16.194,36.1,36.1c0,19.906-16.194,36.1-36.1,36.1s-36.1-16.194-36.1-36.1C219.9,75.663,236.094,59.469,256,59.469z
			 M83.403,163.2h40.614v241.308H83.403V163.2z M358.07,452.529H153.93c-23.546,0-46.45-6.531-66.252-18.5h336.644
			C404.519,445.999,381.615,452.529,358.07,452.529z M428.597,404.508H153.341v-56.627h275.256V404.508z M428.597,319.14H153.341
			v-21.128h140.118c7.817,0,14.157-6.338,14.157-14.157s-6.339-14.157-14.157-14.157H153.341v-21.128h275.256V319.14z
			 M428.597,220.041H153.341V163.2h275.256V220.041z"/>
	</g>
</g>
<g>
	<g>
		<path d="M349.803,281.085c-0.17-0.906-0.453-1.784-0.807-2.647c-0.354-0.849-0.793-1.671-1.302-2.435
			c-0.508-0.779-1.103-1.501-1.754-2.166c-0.653-0.651-1.375-1.232-2.153-1.755c-0.764-0.51-1.586-0.948-2.448-1.302
			c-0.851-0.354-1.741-0.623-2.647-0.807c-1.826-0.368-3.695-0.368-5.521,0c-0.906,0.184-1.798,0.453-2.647,0.807
			c-0.862,0.354-1.683,0.793-2.448,1.302c-0.78,0.524-1.502,1.104-2.153,1.755c-0.651,0.665-1.246,1.387-1.77,2.166
			c-0.508,0.764-0.934,1.586-1.288,2.435c-0.354,0.864-0.636,1.741-0.805,2.647c-0.184,0.92-0.283,1.84-0.283,2.775
			c0,0.92,0.099,1.84,0.283,2.761c0.167,0.906,0.45,1.798,0.804,2.647s0.78,1.685,1.288,2.449c0.524,0.779,1.118,1.501,1.77,2.152
			c0.651,0.651,1.373,1.246,2.153,1.755c0.764,0.51,1.586,0.948,2.448,1.302c0.851,0.354,1.741,0.623,2.647,0.807
			c0.906,0.184,1.84,0.283,2.761,0.283c3.723,0,7.376-1.515,10.009-4.148c2.632-2.633,4.148-6.286,4.148-10.009
			C350.086,282.926,349.987,282.005,349.803,281.085z"/>
	</g>
</g>
<g>
</g>
<g>
</g>
<g>
</g>
<g>
</g>
<g>
</g>
<g>
</g>
<g>
</g>
<g>
</g>
<g>
</g>
<g>
</g>
<g>
</g>
<g>
</g>
<g>
</g>
<g>
</g>
<g>
</g>
</svg>
