<?xml version="1.0" encoding="iso-8859-1"?>
<!-- Generator: Adobe Illustrator 16.0.0, SVG Export Plug-In . SVG Version: 6.00 Build 0)  -->
<!DOCTYPE svg PUBLIC "-//W3C//DTD SVG 1.1//EN" "http://www.w3.org/Graphics/SVG/1.1/DTD/svg11.dtd">
<svg version="1.1" id="Capa_1" xmlns="http://www.w3.org/2000/svg" xmlns:xlink="http://www.w3.org/1999/xlink" x="0px" y="0px"
	 width="80%" height="80%" viewBox="0 0 204.645 204.645" style="enable-background:new 0 0 204.645 204.645;"
	 xml:space="preserve">
<g>
	<g>
		<path d="M194.062,108.879c-6.663-14.4-18.784-28.335-34.129-39.236c-18.26-12.973-35.461-20.278-63.66-23.802
			c-2.742-0.344-6.268-0.873-9.689-0.873c-13.546,0-23.82,9.581-27.906,14.093c-4.669-2.408-9.18-3.626-13.441-3.626
			c-11.526,0-18.016,8.562-20.701,13.238c-3.493-1.117-9.62-2.039-13.936,4.729c-3.756,5.891-1.116,12.884,1.156,17.013
			c-6.116,3.14-9.562,7.079-10.258,11.741c-1.082,7.238,4.92,13.232,7.546,15.471c-6.014,14-8.235,28.375-9.032,38.113
			c-0.077,0.939,0.243,1.869,0.882,2.562c0.639,0.693,1.539,1.088,2.482,1.088c0,0,189.203,0.284,190.12,0.284
			c4.19,0,5.61,0.258,8.808-3.978C208.832,147.042,200.278,122.313,194.062,108.879z M8.171,103.153
			c0.556-3.72,5.624-6.479,9.777-8.14c0.987-0.394,1.73-1.23,2.006-2.256c0.276-1.026,0.053-2.122-0.602-2.959
			c-1.602-2.046-5.604-8.783-3.063-12.768c1.915-3.004,3.979-2.847,7.608-1.406c0.541,0.216,1.009,0.401,1.481,0.519
			c1.639,0.41,3.324-0.454,3.951-2.02c0.048-0.119,4.906-11.938,15.905-11.938c3.784,0,7.987,1.37,12.491,4.072
			c1.484,0.889,3.399,0.515,4.436-0.869c0.103-0.137,10.417-13.67,24.421-13.67c8.238,0,14.358,2.981,18.189,8.859
			c3.074,4.716,3.565,9.617,3.586,9.847c0,0.005,0.001,0.01,0.001,0.016l0.003,0.049c0,1.172,0.611,2.259,1.609,2.873
			c0.998,0.614,2.247,0.665,3.293,0.136c2.891-1.46,11.434-4.483,16.175-0.974c5.663,4.191,7.326,12.821,7.442,14.361
			c-0.066,0.921,0.249,1.844,0.894,2.538c0.842,0.906,2.113,1.28,3.31,0.973c0.068-0.018,7.06-1.668,10.402,2.406
			c2.813,3.429,0.914,9.783-0.052,11.933c-0.516,1.131-0.369,2.451,0.382,3.44s1.982,1.485,3.211,1.295
			c0.083-0.015,8.541-1.188,11.485,3.647c2.484,4.082-4.421,9.32-4.483,9.367c-1.184,0.858-1.68,2.381-1.228,3.773
			c0.373,1.148,1.32,1.99,2.464,2.25c0.476,0.12,9.257,2.434,12.505,8.928c2.512,5.023-2.165,11.982-5.08,15.303
			c-1.306-0.037-3.512-0.08-6.997-0.094c-6.899-20.445-18.463-39.529-32.734-53.966c-15.871-16.052-33.971-24.893-50.964-24.893
			c-15.155,0-29.505,3.611-41.5,10.441c-10.823,6.164-19.538,14.728-25.201,24.765c-0.4,0.709-0.802,1.453-1.216,2.244
			C9.967,109.09,7.752,105.956,8.171,103.153z M7.086,152.64c1.024-9.324,3.385-21.773,8.757-33.716
			c0.509-1.134,1.042-2.253,1.582-3.325c0.612-1.21,1.184-2.285,1.75-3.287c8.666-15.361,29.195-31.774,60.822-31.774
			c15.176,0,31.57,8.129,46.163,22.889c13.062,13.21,23.746,30.549,30.393,49.214L7.086,152.64L7.086,152.64z M197.812,150.731
			c-1.713,2.27-2.99,2.295-7.745,2.137c-1.048-0.035-10.967-0.071-10.967-0.071c3.101-4.767,6.021-11.755,2.709-18.378
			c-2.669-5.338-7.601-8.635-11.607-10.508c3.049-3.785,5.254-9.086,2.077-14.301c-3.184-5.231-8.933-6.668-13.143-6.961
			c0.878-4.018,1.173-9.737-2.432-14.127c-3.936-4.797-9.812-5.386-13.602-5.18c-0.5-2.153-1.188-4.101-1.201-4.137
			c-1.312-3.641-3.843-8.697-8.449-12.105c-6.111-4.523-14.273-2.913-19.13-1.29c-0.622-2.387-1.729-5.492-3.687-8.59
			c-0.46-0.728-0.981-1.474-1.566-2.22c40.097,8.364,68.125,33.506,78.864,56.714C200.196,138.21,199.223,148.862,197.812,150.731z"
			/>
		<path d="M111.01,105.544c-5.791,0-10.502,4.713-10.502,10.507c0,5.791,4.711,10.502,10.502,10.502s10.502-4.711,10.502-10.502
			C121.512,110.257,116.801,105.544,111.01,105.544z M111.01,119.803c-2.068,0-3.752-1.683-3.752-3.752
			c0-2.071,1.683-3.757,3.752-3.757c2.068,0,3.752,1.686,3.752,3.757C114.762,118.12,113.078,119.803,111.01,119.803z"/>
		<path d="M93.135,124.944c-5.791,0-10.502,4.713-10.502,10.506c0,5.791,4.711,10.502,10.502,10.502s10.502-4.711,10.502-10.502
			C103.636,129.657,98.925,124.944,93.135,124.944z M93.135,139.202c-2.069,0-3.752-1.682-3.752-3.752s1.683-3.756,3.752-3.756
			c2.068,0,3.752,1.685,3.752,3.756C96.886,137.521,95.203,139.202,93.135,139.202z"/>
		<path d="M97.756,106.54c0-5.792-4.713-10.503-10.507-10.503c-5.791,0-10.502,4.711-10.502,10.503
			c0,5.793,4.711,10.506,10.502,10.506C93.043,117.047,97.756,112.333,97.756,106.54z M83.499,106.54
			c0-2.068,1.683-3.754,3.752-3.754c2.071,0,3.757,1.685,3.757,3.754c0,2.07-1.685,3.756-3.757,3.756
			C85.181,110.297,83.499,108.612,83.499,106.54z"/>
	</g>
</g>
<g>
</g>
<g>
</g>
<g>
</g>
<g>
</g>
<g>
</g>
<g>
</g>
<g>
</g>
<g>
</g>
<g>
</g>
<g>
</g>
<g>
</g>
<g>
</g>
<g>
</g>
<g>
</g>
<g>
</g>
</svg>
